<svg width="512" height="512" viewBox="0 0 512 512" style="color:#1C2033" xmlns="http://www.w3.org/2000/svg" class="h-full w-full"><rect width="512" height="512" x="0" y="0" rx="30" fill="transparent" stroke="transparent" stroke-width="0" stroke-opacity="100%" paint-order="stroke"></rect><svg width="256px" height="256px" viewBox="0 0 24 24" fill="#1C2033" x="128" y="128" role="img" style="display:inline-block;vertical-align:middle" xmlns="http://www.w3.org/2000/svg"><g fill="#1C2033"><path fill="currentColor" d="M12.01 12c0-3.57 2.2-6.62 5.31-7.87c.89-.36.75-1.69-.19-1.9c-1.1-.24-2.27-.3-3.48-.14c-4.51.6-8.12 4.31-8.59 8.83C4.44 16.93 9.13 22 15.01 22c.73 0 1.43-.08 2.12-.23c.95-.21 1.1-1.53.2-1.9A8.46 8.46 0 0 1 12.01 12z"/></g></svg></svg>